# xmcd
#
# Track frame offsets: 
#        150
#        18420
#        36192
#        56422
#        73665
#        91880
#        111835
#        132970
#        148955
#        170607
#        187260
#
# Disc length: 2782 seconds
#
# Revision: 1
# Processed by: cddbd v1.5.2PL0 Copyright (c) Steve Scherf et al.
# Submitted via: ExactAudioCopy v0.99pb5
#
DISCID=a20adc0b
DTITLE=Алёна Свиридова - Ночью всё иначе
DYEAR=2002
DGENRE=Pop
TTITLE0=Бедная овечка
TTITLE1=Если ты захочешь
TTITLE2=Два ангела
TTITLE3=Лунный свет
TTITLE4=Старый полковник
TTITLE5=Карментсита
TTITLE6=Ночью все иначе
TTITLE7=Призрачный герой
TTITLE8=Счастье мое
TTITLE9=Колыбельная
TTITLE10=Будет так всегда
EXTD=
EXTT0=
EXTT1=
EXTT2=
EXTT3=
EXTT4=
EXTT5=
EXTT6=
EXTT7=
EXTT8=
EXTT9=
EXTT10=
PLAYORDER=
